<?xml version="1.0" encoding="utf-8"?>
<svg xmlns="http://www.w3.org/2000/svg" xmlns:xlink="http://www.w3.org/1999/xlink" style="margin: auto; background: none; display: block; shape-rendering: auto;" width="84px" height="84px" viewBox="0 0 100 100" preserveAspectRatio="xMidYMid">
<g transform="translate(50 50)">
<g>
<animateTransform attributeName="transform" type="rotate" values="0;40" keyTimes="0;1" dur="0.36101083032490977s" repeatCount="indefinite"></animateTransform><path d="M23.103030104295843 -6.5 L27.103030104295843 -6.5 L27.103030104295843 6.5 L23.103030104295843 6.5 A24 24 0 0 1 21.8760672935688 9.871052616983127 L21.8760672935688 9.871052616983127 L24.94024506604471 12.442203055729284 L16.5840061401197 22.400780816276 L13.519828367643788 19.829630377529842 A24 24 0 0 1 10.413049470774556 21.62333000994994 L10.413049470774556 21.62333000994994 L11.107642181442278 25.56256102199877 L-1.694858607716422 27.81998733166887 L-2.3894513183841437 23.880756319620037 A24 24 0 0 1 -5.922349927549067 23.25781097471685 L-5.922349927549067 23.25781097471685 L-7.9223499275490665 26.721912589854604 L-19.18068017674677 20.221912589854604 L-17.18068017674677 16.75781097471685 A24 24 0 0 1 -19.486615975184648 14.009703702636916 L-19.486615975184648 14.009703702636916 L-23.24538645832828 15.377784275939591 L-27.691648321561978 3.161780205722775 L-23.932877838418346 1.7936996324200996 A24 24 0 0 1 -23.93287783841835 -1.7936996324200933 L-23.93287783841835 -1.7936996324200933 L-27.691648321561985 -3.161780205722768 L-23.245386458328287 -15.377784275939582 L-19.48661597518465 -14.009703702636909 A24 24 0 0 1 -17.180680176746783 -16.75781097471684 L-17.180680176746783 -16.75781097471684 L-19.180680176746783 -20.221912589854593 L-7.92234992754908 -26.7219125898546 L-5.922349927549078 -23.257810974716847 A24 24 0 0 1 -2.3894513183841606 -23.880756319620033 L-2.3894513183841606 -23.880756319620033 L-1.6948586077164407 -27.819987331668866 L11.107642181442273 -25.562561021998775 L10.413049470774553 -21.623330009949942 A24 24 0 0 1 13.519828367643779 -19.829630377529845 L13.519828367643779 -19.829630377529845 L16.58400614011969 -22.400780816276004 L24.94024506604471 -12.442203055729287 L21.8760672935688 -9.87105261698313 A24 24 0 0 1 23.10303010429584 -6.500000000000009 M0 -12A12 12 0 1 0 0 12 A12 12 0 1 0 0 -12" fill="#eab145"></path></g></g>
<!-- [ldio] generated by https://loading.io/ --></svg>